<svg width="14" height="12" viewBox="0 0 14 12" fill="none" xmlns="http://www.w3.org/2000/svg">
<path fill-rule="evenodd" clip-rule="evenodd" d="M2.54112 5.17433C4.48669 1.72478 5.45948 0 6.99998 0C8.54048 0 9.51326 1.72477 11.4588 5.17432L11.7013 5.60418C13.318 8.47074 14.1264 9.90401 13.3958 10.952C12.6652 12 10.8576 12 7.24242 12H6.75754C3.14235 12 1.33476 12 0.604151 10.952C-0.126459 9.90401 0.681921 8.47074 2.29868 5.60418L2.54112 5.17433ZM6.99998 2.83333C7.27612 2.83333 7.49998 3.05719 7.49998 3.33333V6.66667C7.49998 6.94281 7.27612 7.16667 6.99998 7.16667C6.72384 7.16667 6.49998 6.94281 6.49998 6.66667V3.33333C6.49998 3.05719 6.72384 2.83333 6.99998 2.83333ZM6.99998 9.33333C7.36817 9.33333 7.66665 9.03486 7.66665 8.66667C7.66665 8.29848 7.36817 8 6.99998 8C6.63179 8 6.33331 8.29848 6.33331 8.66667C6.33331 9.03486 6.63179 9.33333 6.99998 9.33333Z" fill="#757575"/>
</svg>
