<svg width="12" height="12" viewBox="0 0 12 12" fill="none" xmlns="http://www.w3.org/2000/svg">
<path fill-rule="evenodd" clip-rule="evenodd" d="M6.95732 0.960629C6.3605 0.635194 5.63923 0.635194 5.0424 0.960629L1.84625 2.70341C1.20359 3.05384 0.803711 3.72735 0.803711 4.45934V7.7511C0.803711 8.48308 1.20359 9.15659 1.84625 9.50702L5.0424 11.2498C5.63923 11.5752 6.3605 11.5752 6.95733 11.2498L10.1535 9.50702C10.7961 9.15659 11.196 8.48308 11.196 7.7511V4.45934C11.196 3.72735 10.7961 3.05384 10.1535 2.70341L6.95732 0.960629ZM6 4.10522C5.81063 4.10522 5.68396 4.33245 5.43063 4.7869L5.36509 4.90447C5.29311 5.03361 5.25711 5.09818 5.20099 5.14079C5.14487 5.18339 5.07497 5.1992 4.93518 5.23083L4.80791 5.25963C4.31597 5.37094 4.07 5.42659 4.01148 5.61477C3.95296 5.80295 4.12065 5.99904 4.45602 6.39121L4.54278 6.49267C4.63809 6.60411 4.68574 6.65983 4.70717 6.72877C4.72861 6.7977 4.72141 6.87205 4.707 7.02074L4.69388 7.1561C4.64318 7.67934 4.61782 7.94096 4.77103 8.05727C4.92424 8.17357 5.15454 8.06753 5.61513 7.85546L5.7343 7.80059C5.86519 7.74033 5.93063 7.71019 6 7.71019C6.06937 7.71019 6.13482 7.74033 6.2657 7.80059L6.38486 7.85546C6.84546 8.06753 7.07577 8.17357 7.22897 8.05727C7.38218 7.94096 7.35682 7.67934 7.30612 7.1561L7.293 7.02074C7.2786 6.87205 7.27139 6.7977 7.29283 6.72877C7.31426 6.65983 7.36191 6.60411 7.45721 6.49267L7.54398 6.39121C7.87935 5.99904 8.04704 5.80295 7.98852 5.61477C7.93 5.42659 7.68403 5.37093 7.19209 5.25963L7.06482 5.23083C6.92503 5.1992 6.85513 5.18339 6.79901 5.14079C6.74289 5.09818 6.7069 5.03361 6.63491 4.90447L6.56937 4.7869C6.31604 4.33245 6.18937 4.10522 6 4.10522Z" fill="#757575"/>
</svg>
