<svg width="14" height="12" viewBox="0 0 14 12" fill="none" xmlns="http://www.w3.org/2000/svg">
<path d="M2.3192 4.56193C0.995275 4.03237 0.333313 3.76758 0.333313 3.43855C0.333313 3.10952 0.995275 2.84473 2.3192 2.31516L4.19151 1.56624C5.51544 1.03667 6.1774 0.771881 6.99998 0.771881C7.82256 0.771881 8.48452 1.03667 9.80845 1.56624L11.6808 2.31516C13.0047 2.84473 13.6666 3.10952 13.6666 3.43855C13.6666 3.76758 13.0047 4.03237 11.6808 4.56193L9.80845 5.31086C8.48452 5.84043 7.82256 6.10521 6.99998 6.10521C6.1774 6.10521 5.51544 5.84043 4.19151 5.31086L2.3192 4.56193Z" fill="#757575"/>
<path fill-rule="evenodd" clip-rule="evenodd" d="M0.333313 3.43855C0.333313 3.76758 0.995275 4.03237 2.3192 4.56193L4.19151 5.31086C5.51544 5.84043 6.1774 6.10521 6.99998 6.10521C7.82256 6.10521 8.48452 5.84043 9.80845 5.31086L11.6808 4.56193C13.0047 4.03237 13.6666 3.76758 13.6666 3.43855C13.6666 3.10952 13.0047 2.84473 11.6808 2.31516L9.80845 1.56624C8.48452 1.03667 7.82256 0.771881 6.99998 0.771881C6.1774 0.771881 5.51544 1.03667 4.19151 1.56624L2.3192 2.31516C0.995275 2.84473 0.333313 3.10952 0.333313 3.43855Z" fill="#757575"/>
<path d="M11.6808 7.2286L9.80845 7.97753C8.48452 8.5071 7.82256 8.77188 6.99998 8.77188C6.1774 8.77188 5.51544 8.5071 4.19151 7.97753L2.3192 7.2286C0.995275 6.69903 0.333313 6.43425 0.333313 6.10521C0.333313 5.80862 0.871186 5.56423 1.94693 5.13105L4.04093 5.96866C5.27336 6.46189 6.04795 6.77188 6.99998 6.77188C7.95201 6.77188 8.7266 6.46189 9.95903 5.96866L12.053 5.13105C13.1288 5.56423 13.6666 5.80862 13.6666 6.10521C13.6666 6.43425 13.0047 6.69903 11.6808 7.2286Z" fill="#757575"/>
<path d="M11.6808 9.89515L9.80845 10.6441C8.48452 11.1736 7.82256 11.4384 6.99998 11.4384C6.1774 11.4384 5.51544 11.1736 4.19151 10.6441L2.3192 9.89515C0.995275 9.36558 0.333313 9.1008 0.333313 8.77176C0.333313 8.47517 0.871186 8.23078 1.94693 7.7976L4.04093 8.63521C5.27336 9.12844 6.04795 9.43843 6.99998 9.43843C7.95201 9.43843 8.7266 9.12844 9.95903 8.63521L12.053 7.7976C13.1288 8.23078 13.6666 8.47517 13.6666 8.77176C13.6666 9.1008 13.0047 9.36558 11.6808 9.89515Z" fill="#757575"/>
</svg>

