<svg width="13" height="13" viewBox="0 0 13 13" fill="none" xmlns="http://www.w3.org/2000/svg">
<path d="M3.14804 1.1726C3.44441 0.974566 3.75561 0.802808 4.07805 0.658408C4.99263 0.248825 5.44992 0.0440328 6.05829 0.43817C6.66665 0.832307 6.66665 1.47884 6.66665 2.7719V3.7719C6.66665 5.02898 6.66665 5.65752 7.05717 6.04805C7.4477 6.43857 8.07624 6.43857 9.33332 6.43857H10.3333C11.6264 6.43857 12.2729 6.43857 12.6671 7.04694C13.0612 7.6553 12.8564 8.11259 12.4468 9.02717C12.3024 9.34961 12.1307 9.66081 11.9326 9.95718C11.2367 10.9987 10.2476 11.8105 9.09031 12.2898C7.93305 12.7692 6.65962 12.8946 5.43108 12.6502C4.20253 12.4058 3.07404 11.8026 2.18831 10.9169C1.30257 10.0312 0.699382 8.90269 0.455009 7.67414C0.210636 6.4456 0.336057 5.17218 0.815412 4.01491C1.29477 2.85764 2.10653 1.86851 3.14804 1.1726Z" fill="#757575"/>
</svg>
