<svg width="13" height="14" viewBox="0 0 13 14" fill="none" xmlns="http://www.w3.org/2000/svg">
<path fill-rule="evenodd" clip-rule="evenodd" d="M7.51921 0.540047C7.27231 0.438553 6.95932 0.438553 6.33333 0.438553C5.70735 0.438553 5.39435 0.438553 5.14746 0.540047C4.81827 0.675372 4.55673 0.934938 4.42037 1.26164C4.35813 1.41078 4.33377 1.58422 4.32423 1.83721C4.31023 2.20901 4.1181 2.55315 3.79344 2.73917C3.46879 2.9252 3.07243 2.91825 2.74099 2.74439C2.51545 2.62609 2.35192 2.5603 2.19066 2.53923C1.83739 2.49307 1.48012 2.58808 1.19744 2.80335C0.985425 2.96481 0.828928 3.23382 0.515935 3.77184C0.202943 4.30986 0.046446 4.57888 0.0115647 4.84182C-0.0349436 5.19242 0.0607874 5.54699 0.277698 5.82754C0.376704 5.95559 0.515849 6.06324 0.731803 6.1979C1.04928 6.39588 1.25355 6.73313 1.25353 7.10524C1.25351 7.4773 1.04924 7.8145 0.731801 8.01245C0.515811 8.14714 0.376648 8.25479 0.277632 8.38285C0.0607216 8.6634 -0.0350094 9.01797 0.0114989 9.36857C0.0463802 9.63152 0.202877 9.90053 0.51587 10.4386C0.828862 10.9766 0.985359 11.2456 1.19737 11.407C1.48005 11.6223 1.83733 11.7173 2.19059 11.6712C2.35185 11.6501 2.51537 11.5843 2.74089 11.466C3.07235 11.2922 3.46873 11.2852 3.79341 11.4712C4.11809 11.6573 4.31022 12.0014 4.32424 12.3733C4.33377 12.6262 4.35813 12.7997 4.42037 12.9488C4.55673 13.2755 4.81827 13.5351 5.14746 13.6704C5.39435 13.7719 5.70735 13.7719 6.33333 13.7719C6.95932 13.7719 7.27231 13.7719 7.51921 13.6704C7.8484 13.5351 8.10994 13.2755 8.2463 12.9488C8.30854 12.7997 8.3329 12.6262 8.34243 12.3732C8.35644 12.0014 8.54854 11.6573 8.87318 11.4712C9.19786 11.2852 9.59427 11.2921 9.92574 11.466C10.1512 11.5843 10.3148 11.65 10.476 11.6711C10.8293 11.7173 11.1865 11.6223 11.4692 11.407C11.6812 11.2455 11.8377 10.9765 12.1507 10.4385C12.4637 9.90048 12.6202 9.63147 12.6551 9.36853C12.7016 9.01793 12.6059 8.66336 12.389 8.38281C12.29 8.25475 12.1508 8.1471 11.9348 8.01242C11.6174 7.81447 11.4131 7.47724 11.4131 7.10516C11.4132 6.73312 11.6174 6.39594 11.9348 6.19801C12.1508 6.06332 12.29 5.95566 12.389 5.82759C12.6059 5.54704 12.7017 5.19247 12.6552 4.84187C12.6203 4.57892 12.4638 4.30991 12.1508 3.77189C11.8378 3.23386 11.6813 2.96485 11.4693 2.8034C11.1866 2.58813 10.8293 2.49312 10.4761 2.53928C10.3148 2.56035 10.1513 2.62612 9.92578 2.74442C9.59432 2.91828 9.19793 2.92523 8.87325 2.73919C8.54857 2.55316 8.35644 2.20899 8.34243 1.83718C8.3329 1.5842 8.30854 1.41077 8.2463 1.26164C8.10994 0.934938 7.8484 0.675372 7.51921 0.540047ZM6.33333 9.10522C7.44631 9.10522 8.34856 8.20979 8.34856 7.10522C8.34856 6.00065 7.44631 5.10522 6.33333 5.10522C5.22035 5.10522 4.3181 6.00065 4.3181 7.10522C4.3181 8.20979 5.22035 9.10522 6.33333 9.10522Z" fill="#757575"/>
</svg>
