<svg width="16" height="14" viewBox="0 0 16 14" fill="none" xmlns="http://www.w3.org/2000/svg">
<path fill-rule="evenodd" clip-rule="evenodd" d="M5.64643 0.646447C5.84169 0.451184 6.15827 0.451184 6.35353 0.646447L7.68687 1.97978C7.82986 2.12278 7.87264 2.33784 7.79525 2.52468C7.71786 2.71151 7.53554 2.83333 7.33331 2.83333H5.99998C3.69879 2.83333 1.83331 4.69881 1.83331 7C1.83331 9.30116 3.69895 11.1667 6.00016 11.1667H6.33331C6.60946 11.1667 6.83331 11.3905 6.83331 11.6667C6.83331 11.9428 6.60946 12.1667 6.33331 12.1667H6.00016C3.14672 12.1667 0.833313 9.8535 0.833313 7C0.833313 4.14653 3.14651 1.83333 5.99998 1.83333H6.12621L5.64643 1.35355C5.45116 1.15829 5.45116 0.841709 5.64643 0.646447ZM9.16665 2.33333C9.16665 2.05719 9.3905 1.83333 9.66665 1.83333H9.99998C12.8534 1.83333 15.1666 4.14653 15.1666 7C15.1666 9.85347 12.8534 12.1667 9.99998 12.1667H9.87375L10.3535 12.6464C10.5488 12.8417 10.5488 13.1583 10.3535 13.3536C10.1583 13.5488 9.84169 13.5488 9.64643 13.3536L8.31309 12.0202C8.17009 11.8772 8.12732 11.6622 8.20471 11.4753C8.2821 11.2885 8.46441 11.1667 8.66665 11.1667H9.99998C12.3012 11.1667 14.1666 9.30119 14.1666 7C14.1666 4.69881 12.3012 2.83333 9.99998 2.83333H9.66665C9.3905 2.83333 9.16665 2.60948 9.16665 2.33333Z" fill="#757575"/>
</svg>
