<svg width="14" height="13" viewBox="0 0 14 13" fill="none" xmlns="http://www.w3.org/2000/svg">
<path d="M12.1248 7.50062L12.2471 6.36417C12.3123 5.75782 12.3553 5.35743 12.3215 5.10516L12.3334 5.10522C12.8856 5.10522 13.3334 4.65751 13.3334 4.10522C13.3334 3.55294 12.8856 3.10522 12.3334 3.10522C11.7811 3.10522 11.3334 3.55294 11.3334 4.10522C11.3334 4.355 11.4249 4.58339 11.5763 4.75864C11.359 4.8928 11.0748 5.17589 10.647 5.60198L10.647 5.60199C10.3175 5.93025 10.1527 6.09439 9.96889 6.1198C9.86704 6.13389 9.76326 6.11941 9.66922 6.078C9.49948 6.00325 9.38631 5.80035 9.15998 5.39453L7.96699 3.25549C7.82736 3.00514 7.7105 2.79561 7.60513 2.62699C8.03737 2.40647 8.33335 1.95708 8.33335 1.43856C8.33335 0.702178 7.7364 0.105225 7.00002 0.105225C6.26364 0.105225 5.66669 0.702178 5.66669 1.43856C5.66669 1.95708 5.96267 2.40647 6.39491 2.62699C6.28953 2.79562 6.17269 3.00512 6.03305 3.25549L4.84006 5.39453C4.61373 5.80034 4.50056 6.00325 4.33082 6.078C4.23678 6.11941 4.133 6.13389 4.03115 6.1198C3.84734 6.09439 3.68256 5.93025 3.35302 5.60199C2.92526 5.1759 2.64106 4.8928 2.42371 4.75864C2.57511 4.58339 2.66669 4.355 2.66669 4.10522C2.66669 3.55294 2.21897 3.10522 1.66669 3.10522C1.1144 3.10522 0.666687 3.55294 0.666687 4.10522C0.666687 4.65751 1.1144 5.10522 1.66669 5.10522L1.6785 5.10516C1.6447 5.35743 1.68776 5.75782 1.75298 6.36417L1.87522 7.50062C1.94307 8.13143 1.9995 8.73166 2.0686 9.27189H11.9314C12.0005 8.73166 12.057 8.13144 12.1248 7.50062Z" fill="#757575"/>
<path d="M6.27473 12.1052H7.72531C9.61593 12.1052 10.5612 12.1052 11.192 11.5407C11.4673 11.2943 11.6416 10.85 11.7674 10.2719H2.23266C2.35845 10.85 2.53278 11.2943 2.80807 11.5407C3.4388 12.1052 4.38411 12.1052 6.27473 12.1052Z" fill="#757575"/>
</svg>
